<svg xmlns="http://www.w3.org/2000/svg" width="214" height="172" viewBox="0 0 214 172">
    <g fill="none" fill-rule="evenodd">
        <path d="M5.674 1.25h210.178v165.14H5.674z"/>
        <g fill="#F7F7F7">
            <path d="M34.651 42.74L79.02 17.02c6.597-3.825 15.032-1.556 18.841 5.069 3.809 6.624 1.548 15.094-5.049 18.919l-44.367 25.72c-6.597 3.825-15.032 1.556-18.841-5.069-3.81-6.624-1.549-15.094 5.048-18.919zM99.85 41.76l44.367-25.72c6.597-3.825 15.033-1.555 18.842 5.069 3.809 6.624 1.548 15.095-5.049 18.92l-44.367 25.72c-6.597 3.825-15.033 1.555-18.841-5.07-3.81-6.623-1.549-15.094 5.048-18.918zM21.885 102.4l44.367-25.721c6.597-3.825 15.033-1.555 18.842 5.07 3.808 6.623 1.548 15.094-5.049 18.918l-44.367 25.721c-6.597 3.825-15.033 1.555-18.842-5.07-3.808-6.623-1.548-15.094 5.049-18.918zM141.736 68.522l44.367-25.72c6.597-3.825 15.033-1.556 18.842 5.068 3.808 6.625 1.548 15.095-5.049 18.92L155.53 92.51c-6.597 3.825-15.033 1.555-18.842-5.069-3.808-6.624-1.548-15.094 5.049-18.919zM56.416 132.1l44.368-25.721c6.597-3.824 15.032-1.555 18.841 5.07 3.809 6.624 1.548 15.094-5.049 18.919l-44.367 25.72c-6.597 3.825-15.032 1.555-18.841-5.069-3.809-6.624-1.549-15.094 5.048-18.919zM121.391 131.106l30.716-17.807c6.597-3.824 15.033-1.555 18.842 5.07 3.808 6.624 1.548 15.094-5.049 18.919l-30.716 17.806c-6.597 3.825-15.032 1.555-18.841-5.069-3.809-6.624-1.549-15.095 5.048-18.92z"/>
        </g>
        <g>
            <path fill="#00AF7D" fill-rule="nonzero" d="M85.59 60.074c0 1.013-.98 1.842-2.177 1.842H21.136c-1.197 0-2.176-.829-2.176-1.842V22.047c0-1.013.98-1.842 2.176-1.842h62.277c1.197 0 2.177.829 2.177 1.842v38.027z"/>
            <path fill="#FFF" d="M18.96 29.414h66.63v10.292H18.96z" opacity=".227"/>
            <path fill="#A1D689" d="M115.692 117.255c0-.865.781-1.57 1.743-1.57h48.327V50.504c0-1.469-1.335-2.671-2.967-2.671H44.136c-1.631 0-2.966 1.202-2.966 2.671v71.58c0 1.47 1.335 2.67 2.966 2.67h71.556v-7.498z"/>
            <g fill="#9A9A99" fill-rule="nonzero">
                <path d="M176.697 39.074a4.063 4.063 0 0 1 .501-5.724l6.225-5.223a4.063 4.063 0 1 1 5.223 6.225l-6.225 5.223a4.063 4.063 0 0 1-5.724-.5zM181.061 52.914a4.062 4.062 0 0 1 3.466-6.659l8.095.708a4.063 4.063 0 0 1-.708 8.095l-8.094-.708a4.05 4.05 0 0 1-2.759-1.436zM179.583 72.01l-5.222-6.224a4.063 4.063 0 1 1 6.224-5.223l5.223 6.224a4.063 4.063 0 1 1-6.225 5.223zM149.986 36.737l-5.223-6.224a4.063 4.063 0 1 1 6.225-5.223l5.222 6.224a4.063 4.063 0 1 1-6.224 5.223zM163.826 32.373a4.05 4.05 0 0 1-.935-2.966l.708-8.094a4.063 4.063 0 0 1 8.095.709l-.708 8.093a4.062 4.062 0 0 1-7.16 2.258z"/>
            </g>
            <g fill="#FFF" stroke="#FFF" stroke-width=".5">
                <path d="M102.723 90.627H62.498c-1.221-.02-2.365.336-2.986.931s-.621 1.333 0 1.928c.62.595 1.765.952 2.986.931h40.225c1.22.02 2.364-.336 2.985-.93.622-.596.622-1.334 0-1.929-.62-.595-1.764-.951-2.985-.931zM102.807 102.002H62.413c-1.203 0-2.314.361-2.916.948-.601.587-.601 1.31 0 1.896.602.587 1.713.948 2.916.948h40.394c1.203 0 2.315-.361 2.916-.948.602-.587.602-1.31 0-1.896-.601-.587-1.713-.948-2.916-.948z"/>
            </g>
            <path fill="#FFF" stroke="#FFF" stroke-width=".5" d="M147.411 88.46h-5.01c-4.15.004-7.512 3.001-7.516 6.7v4.475c.004 3.699 3.367 6.696 7.516 6.7h5.01c4.15-.004 7.512-3.001 7.517-6.7v-4.469c-.002-3.701-3.365-6.702-7.517-6.707zm2.641 11.375c0 1.197-1.152 2.167-2.573 2.167h-5.145c-.683 0-1.338-.228-1.82-.635-.483-.406-.754-.958-.754-1.532v-4.333c0-1.197 1.152-2.167 2.574-2.167h5.145c1.421 0 2.573.97 2.573 2.167v4.333z"/>
            <path fill="#622870" fill-rule="nonzero" d="M187.43 158.52c0 1.092-1.06 1.986-2.354 1.986h-67.34c-1.294 0-2.353-.894-2.353-1.986v-40.99c0-1.092 1.06-1.985 2.353-1.985h67.34c1.295 0 2.354.893 2.354 1.985v40.99z"/>
            <path fill="#FFF" d="M115.383 125.837h72.047v10.834h-72.047z" opacity=".227"/>
            <path fill="#00AF7D" d="M41.17 61.916h124.592v16.251H41.17z"/>
        </g>
    </g>
</svg>
