<svg xmlns="http://www.w3.org/2000/svg" width="391" height="309" viewBox="0 0 391 309">
    <g fill="none" fill-rule="evenodd">
        <path d="M10.114 2.14h380.215v305.913H10.114z"/>
        <g fill="#F7F7F7">
            <path d="M62.534 79l80.26-47.647c11.935-7.085 27.195-2.88 34.085 9.39 6.89 12.272 2.802 27.963-9.132 35.047l-80.261 47.647c-11.935 7.085-27.195 2.88-34.085-9.39C46.511 101.776 50.6 86.085 62.534 79zM180.48 77.185l80.26-47.647c11.935-7.084 27.195-2.88 34.085 9.391 6.89 12.271 2.801 27.962-9.133 35.047l-80.26 47.647c-11.935 7.084-27.195 2.88-34.085-9.391-6.89-12.271-2.801-27.962 9.133-35.047zM39.44 189.516l80.26-47.647c11.935-7.084 27.195-2.88 34.085 9.391 6.89 12.271 2.801 27.962-9.133 35.047l-80.26 47.647c-11.935 7.084-27.195 2.88-34.085-9.391-6.89-12.271-2.802-27.962 9.133-35.047zM256.252 126.76l80.26-47.647c11.935-7.085 27.195-2.88 34.085 9.39 6.89 12.271 2.801 27.962-9.133 35.047l-80.26 47.647c-11.935 7.085-27.195 2.88-34.085-9.39-6.89-12.272-2.802-27.963 9.133-35.048zM101.907 244.534l80.261-47.646c11.934-7.085 27.194-2.88 34.085 9.39 6.89 12.271 2.8 27.962-9.133 35.047l-80.261 47.647c-11.934 7.085-27.194 2.88-34.085-9.39-6.89-12.272-2.8-27.963 9.133-35.048zM219.448 242.693l55.565-32.986c11.935-7.085 27.195-2.88 34.085 9.39 6.89 12.271 2.801 27.962-9.133 35.047L244.4 287.13c-11.934 7.085-27.195 2.88-34.085-9.39-6.89-12.271-2.8-27.962 9.133-35.047z"/>
        </g>
        <g transform="translate(30.628 27.7)">
            <path fill="#00AF7D" d="M299.3 96.159c6.51 13.381-60.7 12.351-79.004-15.319L65.984 141.497c-4.005 1.575-6.024 6.218-4.487 10.32l32.698 87.226c1.537 4.101 6.072 6.169 10.077 4.595l218.06-85.716c4.005-1.574 6.024-6.218 4.486-10.319l-21.292-58.578c-1.818.901-12.113-4.964-6.227 7.134z"/>
            <path fill="#4FC5A3" d="M293.628 110.952c-33.383 6.644-65.954-11.65-79.287-42.155L52.087 101.094c-4.211.838-6.987 5.052-6.168 9.364l17.41 91.716c.818 4.312 4.933 7.154 9.144 6.316l229.282-45.638c4.211-.838 6.987-5.052 6.169-9.364l-8.351-43.993a71.134 71.134 0 0 1-5.945 1.457z"/>
            <path fill="#A1D689" d="M282.918 108.793c-34.007 0-62.57-24.323-69.974-56.872H47.652c-4.29 0-7.8 3.595-7.8 7.988v93.432c0 4.393 3.51 7.987 7.8 7.987h233.574c4.29 0 7.8-3.594 7.8-7.987v-44.816c-2.014.174-4.051.268-6.108.268z"/>
            <g fill="#9A9A99" fill-rule="nonzero">
                <path d="M32.912 42.215a5.753 5.753 0 0 1-8.272-.147l-8.128-8.619c-2.244-2.38-2.18-6.172.145-8.47a5.753 5.753 0 0 1 8.272.147l8.127 8.619c2.244 2.38 2.18 6.172-.144 8.47zM52.352 34.373a5.76 5.76 0 0 1-4.166 1.68c-3.23-.057-5.804-2.785-5.747-6.093l.204-11.98c.057-3.308 2.721-5.942 5.952-5.885 3.23.058 5.803 2.787 5.747 6.095l-.204 11.978a6.04 6.04 0 0 1-1.786 4.205zM79.93 34.583l-8.416 8.322a5.753 5.753 0 0 1-8.272-.148c-2.244-2.38-2.18-6.172.145-8.47l8.416-8.323a5.753 5.753 0 0 1 8.271.148c2.245 2.38 2.18 6.172-.144 8.47zM32.237 81.746l-8.415 8.321a5.753 5.753 0 0 1-8.272-.148c-2.245-2.38-2.18-6.172.144-8.47l8.415-8.322a5.753 5.753 0 0 1 8.272.148c2.244 2.38 2.18 6.172-.144 8.47zM24.579 61.837a5.76 5.76 0 0 1-4.167 1.68l-11.696-.209c-3.23-.057-5.804-2.786-5.747-6.094.056-3.308 2.72-5.943 5.951-5.885l11.696.209c3.23.058 5.804 2.786 5.747 6.094a6.035 6.035 0 0 1-1.784 4.205z"/>
            </g>
            <g transform="translate(210.46)">
                <ellipse cx="58.5" cy="59.905" fill="#622870" fill-rule="nonzero" rx="58.5" ry="59.905"/>
                <path fill="#7D3A8D" fill-rule="nonzero" d="M29.564 59.905c0-21.272 15.378-38.887 35.436-41.956a41.257 41.257 0 0 0-6.25-.477c-23.024 0-41.688 18.998-41.688 42.433 0 23.434 18.664 42.432 41.688 42.432 2.124 0 4.211-.164 6.25-.476-20.058-3.07-35.436-20.684-35.436-41.956z"/>
                <path fill="#FFF" stroke="#62BA3A" stroke-width=".2" d="M59.716 77.02c-3.595-.414-6.306-3.423-6.312-7.002 0-1.715-1.406-3.106-3.14-3.106-1.733 0-3.139 1.39-3.139 3.106.01 5.977 4.05 11.213 9.875 12.795v3.106c0 1.715 1.405 3.106 3.139 3.106 1.734 0 3.14-1.39 3.14-3.106V83C70 81.608 74.57 75.413 73.863 68.653c-.708-6.76-6.464-11.897-13.333-11.898-3.936 0-7.127-3.158-7.127-7.053s3.191-7.053 7.127-7.053c3.937 0 7.128 3.158 7.128 7.053 0 1.715 1.406 3.106 3.14 3.106 1.733 0 3.138-1.39 3.138-3.106-.009-6.276-4.452-11.69-10.659-12.984V33.89c0-1.716-1.405-3.107-3.139-3.107-1.734 0-3.14 1.391-3.14 3.107v3.016c-6.477 1.75-10.646 7.973-9.754 14.559.892 6.585 6.571 11.5 13.286 11.5 3.885 0 7.053 3.077 7.123 6.918.072 3.842-2.98 7.033-6.862 7.173a3.02 3.02 0 0 0-1.076-.037z"/>
            </g>
            <ellipse cx="164.439" cy="106.625" stroke="#FFF" stroke-width="3" rx="34.976" ry="35.816"/>
            <path fill="#FFF" fill-rule="nonzero" d="M153.228 121.49c2.03 0 3.824-.456 5.38-1.366 1.554-.91 2.745-2.138 3.57-3.685.825-1.547 1.238-3.263 1.238-5.148 0-1.3-.229-2.516-.686-3.647a9.026 9.026 0 0 0-1.885-2.935 8.79 8.79 0 0 0-2.79-1.94 8.368 8.368 0 0 0-3.418-.702c-1.524 0-3.187.494-4.99 1.482l1.086-6.318h9.045c.94 0 1.65-.208 2.133-.624.483-.416.724-.962.724-1.638 0-1.547-.99-2.32-2.97-2.32h-10.056c-1.091 0-1.878.253-2.36.76-.483.507-.813 1.32-.991 2.438l-1.6 9.34c-.14.82-.21 1.261-.21 1.326 0 .585.242 1.108.724 1.57.483.461 1.035.692 1.657.692.571 0 1.298-.341 2.18-1.024.883-.682 1.559-1.16 2.029-1.433.47-.273 1.25-.41 2.342-.41a4.6 4.6 0 0 1 2.418.654c.724.435 1.302 1.095 1.733 1.98.432.883.648 1.95.648 3.197 0 1.157-.2 2.19-.6 3.1-.4.91-.968 1.626-1.704 2.146-.737.52-1.594.78-2.571.78a4.726 4.726 0 0 1-2.895-.965c-.863-.644-1.549-1.544-2.056-2.701-.52-1.261-1.314-1.892-2.38-1.892-.623 0-1.14.228-1.553.683-.412.455-.619.936-.619 1.443 0 .832.296 1.804.886 2.915.59 1.112 1.593 2.096 3.009 2.954 1.415.858 3.26 1.287 5.532 1.287zm23.29-.04c1.675 0 3.198-.416 4.57-1.248 1.37-.832 2.488-2.015 3.351-3.549.686-1.248 1.155-2.639 1.41-4.173.253-1.534.38-3.367.38-5.499 0-3.926-.482-6.961-1.447-9.106-.559-1.235-1.241-2.272-2.047-3.11a8.112 8.112 0 0 0-2.81-1.912c-1.066-.435-2.253-.653-3.56-.653-1.98 0-3.685.49-5.113 1.472-1.428.982-2.517 2.409-3.266 4.28-.432 1.132-.75 2.484-.952 4.057-.203 1.573-.305 3.34-.305 5.304 0 1.52.092 2.934.276 4.241.184 1.306.473 2.5.867 3.578.774 1.976 1.926 3.523 3.456 4.641 1.53 1.118 3.26 1.677 5.19 1.677zm-.039-3.958c-1.13 0-2.025-.4-2.685-1.2-.66-.799-1.13-1.979-1.41-3.539-.278-1.56-.418-3.562-.418-6.006 0-3.6.327-6.266.98-7.995.654-1.729 1.82-2.593 3.495-2.593 1.168 0 2.082.386 2.742 1.16.66.773 1.13 1.917 1.41 3.432.279 1.514.418 3.461.418 5.84 0 2.51-.133 4.537-.4 6.084-.266 1.547-.73 2.737-1.39 3.569-.66.832-1.574 1.248-2.742 1.248z"/>
            <g fill="#FFF">
                <path d="M80.384 133.312h-16.92c-2.632 0-4.762-1.442-4.762-3.223 0-1.78 2.13-3.223 4.761-3.223h16.921c2.631 0 4.762 1.443 4.762 3.223 0 1.78-2.13 3.223-4.762 3.223zM97.622 146.205H63.337c-2.56 0-4.635-1.442-4.635-3.223 0-1.78 2.076-3.224 4.635-3.224h34.285c2.558 0 4.635 1.444 4.635 3.224 0 1.78-2.077 3.223-4.635 3.223z"/>
            </g>
            <ellipse cx="67.282" cy="77.752" fill="#FFF" fill-rule="nonzero" rx="8.58" ry="8.786"/>
        </g>
    </g>
</svg>
